<?xml version="1.0" encoding="utf-8"?>
<!-- Generator: Adobe Illustrator 16.0.0, SVG Export Plug-In . SVG Version: 6.00 Build 0)  -->
<!DOCTYPE svg PUBLIC "-//W3C//DTD SVG 1.1//EN" "http://www.w3.org/Graphics/SVG/1.1/DTD/svg11.dtd">
<svg version="1.1" id="Layer_1" xmlns="http://www.w3.org/2000/svg" xmlns:xlink="http://www.w3.org/1999/xlink" x="0px" y="0px"
	 width="500px" height="284.746px" viewBox="0 0 500 284.746" enable-background="new 0 0 500 284.746" xml:space="preserve">
<g>
	<linearGradient id="SVGID_1_" gradientUnits="userSpaceOnUse" x1="121.1182" y1="200.8096" x2="124.3359" y2="200.8096">
		<stop  offset="0" style="stop-color:#FFE82A"/>
		<stop  offset="1" style="stop-color:#FFB900"/>
	</linearGradient>
	<path fill-rule="evenodd" clip-rule="evenodd" fill="url(#SVGID_1_)" d="M124.336,200.507c-1.192,0.666-2.026,1.129-2.859,1.594
		c-0.121-0.112-0.24-0.225-0.358-0.339c0.492-0.764,0.939-1.563,1.528-2.236C122.714,199.446,123.571,200.053,124.336,200.507z"/>
	<linearGradient id="SVGID_2_" gradientUnits="userSpaceOnUse" x1="139.3979" y1="193.2725" x2="140.9043" y2="193.2725">
		<stop  offset="0" style="stop-color:#FFE82A"/>
		<stop  offset="1" style="stop-color:#FFB900"/>
	</linearGradient>
	<path fill-rule="evenodd" clip-rule="evenodd" fill="url(#SVGID_2_)" d="M139.398,194.483c0.178-0.856,0.359-1.716,0.537-2.57
		c0.151-0.037,0.303-0.069,0.453-0.105c0.184,0.411,0.588,0.872,0.505,1.217c-0.145,0.606-0.588,1.145-0.907,1.712
		C139.79,194.648,139.595,194.567,139.398,194.483z"/>
	<linearGradient id="SVGID_3_" gradientUnits="userSpaceOnUse" x1="101.2471" y1="-4.3496" x2="254.6561" y2="138.1505">
		<stop  offset="0" style="stop-color:#006994"/>
		<stop  offset="0.5074" style="stop-color:#00EDFF"/>
		<stop  offset="1" style="stop-color:#007BFF"/>
	</linearGradient>
	<path fill="url(#SVGID_3_)" d="M181.821,70.495c-0.001-0.011-0.004-0.025-0.004-0.036l-0.034,0.034
		C181.784,70.493,181.809,70.495,181.821,70.495z"/>
	<path fill="#FFFFFF" d="M209.531,136.007c9.744-14.521,11.331-29.723,3.444-45.276c-7.495-14.774-20.53-23.369-37.933-26.474
		c-2.551-0.458-5.211-0.395-7.842-0.477v-0.042h-39.249v23.28h38.217c0.015,0,0.032,0,0.046,0c0.002,0.014,0.008,0.028,0.008,0.039
		c10.714,0.399,18.912,4.707,23.394,13.661c4.407,8.802,3.163,17.339-3.678,24.864c-5.214,5.732-12.194,8.349-20.3,8.382
		c-0.135,0-0.27,0-0.404,0h-37.256v23.382v0.374h16.97c1.02,0.095,2.03,0.218,3.04,0.357c7.422,1.465,32.821,8.124,41.41,31.819
		c0.739,2.828,1.571,5.64,2.172,8.492c0.064,0.306,0.105,0.612,0.153,0.918c0.054,0.388,0.105,0.773,0.152,1.168
		c0.136,1.309,0.199,2.644,0.333,3.997c2.975,0,5.89,0.003,8.784,0h16.737c0,0,3.661-28.997-26.176-52.986
		c0.544-0.314,0.955-0.565,1.374-0.797C199.709,146.97,205.398,142.167,209.531,136.007z"/>
	<path fill="#FFFFFF" d="M305.932,156.252c0,15.743-9.406,25.151-23.809,25.151c-14.396,0-23.614-9.408-23.614-25.151V67.359
		h-26.688v89.853c0,28.992,22.271,48.001,50.302,48.001c28.034,0,50.305-19.009,50.305-48.001V67.359h-26.496V156.252z"/>
	<polygon fill="#FFFFFF" points="418.441,133.981 458.185,67.359 428.042,67.359 404.042,111.519 380.236,67.359 349.899,67.359
		389.641,133.981 347.214,204.059 377.737,204.059 404.042,156.444 430.537,204.059 461.064,204.059 	"/>
	<linearGradient id="SVGID_4_" gradientUnits="userSpaceOnUse" x1="38.395" y1="115.5352" x2="458.2109" y2="115.5352">
		<stop  offset="0" style="stop-color:#1EBF00"/>
		<stop  offset="1" style="stop-color:#6FFF54"/>
	</linearGradient>
	<path fill="url(#SVGID_4_)" d="M458.211,52.531v-26.35H164.688c-12.257-0.001-24.517-0.044-36.774,0.008
		c-15.698,0.066-30.458,3.804-44.062,11.708c-1.337,0.775-2.632,1.617-3.92,2.478l-0.015-0.001c0,0-0.636,0.401-1.74,1.19
		c-1.547,1.07-3.077,2.161-4.624,3.226c-0.299,0.205-0.484,0.573-0.696,0.91c-0.309,0.258-0.626,0.528-0.952,0.807
		c-0.418,0.166-0.878,0.282-1.182,0.572c-3.137,2.975-6.355,5.879-9.291,9.046c-4.7,5.071-8.611,10.753-11.953,16.81
		c-2.12,3.847-3.925,7.81-5.438,11.88c-0.039,0.112-0.084,0.219-0.125,0.33c-0.07,0.181-0.136,0.362-0.205,0.545
		c-4.583,12.073-6.86,26.435-4.154,42.95c0.022,1.125,0.337,2.242,0.536,3.362c1.227,6.858,3.37,13.438,6.163,19.808
		c0.254,0.579,0.481,1.188,0.789,1.731c0.57,1.242,1.16,2.461,1.774,3.646c0.039,0.077,0.079,0.151,0.118,0.225
		c3.111,5.992,6.756,11.31,10.754,16.014c0.007,0.047,0.014,0.089,0.02,0.14c0.022-0.019,0.041-0.028,0.062-0.045
		c19.115,22.424,46.249,30.828,61.882,31.053c14.509,0.531,29.048,0.255,43.574,0.32c0.274,0,0.55-0.126,0.8-0.187
		c0-0.943,0.077-1.806-0.01-2.646c-1.199-11.698-11.208-21.66-22.961-22.524c-4.153-0.31-8.336-0.24-12.513-0.233
		c-5.655-0.238-12.116-0.718-16.886-1.666c-1.394-0.333-2.77-0.704-4.125-1.116c-0.698-0.266-1.414-0.493-2.143-0.689
		c-6.89-2.358-13.265-5.808-19.094-10.408c-4.259-3.359-8.068-7.171-11.305-11.523c-15.876-21.323-18.128-51.208-0.57-76.11
		c2.666-3.781,6.11-7.125,9.615-10.187c8.481-7.416,18.062-12.167,28.639-14.387l3.606-0.653c0.1-0.017,0.204-0.027,0.303-0.041
		l15.778-0.647h30.322v0.657H458.211z"/>
	<g>

			<text transform="matrix(1 0 0 1 120.416 248.9688)" fill="#FFFFFF" font-family="'DINPro-Bold'" font-size="41.0857" letter-spacing="41">itweb</text>
		<linearGradient id="SVGID_5_" gradientUnits="userSpaceOnUse" x1="49.3779" y1="236.1875" x2="97.8647" y2="236.1875">
			<stop  offset="0" style="stop-color:#1EBF00"/>
			<stop  offset="1" style="stop-color:#6FFF54"/>
		</linearGradient>
		<line fill="url(#SVGID_5_)" x1="97.865" y1="236.188" x2="49.378" y2="236.188"/>
		<linearGradient id="SVGID_6_" gradientUnits="userSpaceOnUse" x1="410.041" y1="236.1875" x2="461.6045" y2="236.1875">
			<stop  offset="0" style="stop-color:#1EBF00"/>
			<stop  offset="1" style="stop-color:#6FFF54"/>
		</linearGradient>
		<line fill="url(#SVGID_6_)" x1="461.604" y1="236.188" x2="410.041" y2="236.188"/>
	</g>
</g>
</svg>
